PathFileType	4	(X/Y/Z)	C:\Users\°ÂÌØÂü\Desktop\20210112\bx_y_10_1801-Unnamed.trc
DataRate	CameraRate	NumFrames	NumMarkers	Units	OrigDataRate	OrigDataStartFrame	OrigNumFrames
50.00	50.00	       8	0	mm	50.00	352	       468
Frame#	Time	
		

352	7.020	-463.10419	264.97195	1271.83508	-660.81390	-37.66983	789.72772	-674.97595	174.79282	154.89856	-705.14410	75.51008	211.83710	-569.29205	-19.35514	484.08911	-702.73016	150.97922	209.87775	-693.86218	289.92825	689.71515				-611.53430	-62.42013	537.06848	-468.19498	-82.28040	1258.89429	-626.75067	267.01093	592.69983	-554.60034	167.37605	555.24652	-602.37109	267.99536	546.24615	-659.65198	268.44363	484.56198	-665.81421	-68.63036	161.15010	-673.77948	53.50807	157.49417	-617.37958	-66.73330	584.79449	-517.62805	-72.15881	143.23402	-763.96826	222.39026	206.61682	-624.52264	-80.37851	157.88989	-882.54730	296.17606	144.64073	-550.64801	228.44501	497.89420	-603.05371	18.13909	167.39259	-558.79926	-39.92773	161.46916				-594.73529	222.41136	173.19588	-666.82227	298.43069	160.51566	-629.61194	306.12820	161.32248	-561.44812	261.79315	163.87038	-528.17902	304.38577	146.76512	-359.94775	88.60002	1543.87927	-735.04358	277.21167	817.76593	-657.70721	219.08171	801.03253	-791.58960	168.72238	188.22299				-760.60449	-4.99781	209.59344	-790.50873	59.44299	179.85863	-677.93591	-58.93240	472.57761	-876.45227	-78.79912	141.72606	-946.27441	91.61559	956.45892	
353	7.040	-467.69241	264.23843	1287.77563	-659.41931	-37.70636	792.77124	-675.14221	174.69913	154.85970	-705.49255	75.54689	212.08958	-571.38855	-19.18674	485.27460	-702.85895	151.27071	210.08086	-693.43085	289.58075	694.01196	-693.35614	-79.94340	661.78931	-614.00171	-62.30013	538.80048	-473.05020	-84.36932	1274.27148	-628.55707	266.52625	594.90112				-604.86554	267.17249	547.67981	-661.83783	267.99570	485.71310	-665.24719	-68.64883	161.59120	-673.73358	53.52951	157.65146	-619.47626	-65.62146	586.49390	-517.58655	-72.21934	142.99184	-764.25592	222.37721	206.69611	-624.26428	-80.15045	158.01595	-882.60156	296.20987	144.66661	-553.59271	227.68980	498.92078	-602.97192	17.96138	167.61942	-558.81659	-39.96939	161.49321				-594.81305	222.35602	173.24258	-666.75287	298.50568	160.36070	-629.73083	306.18671	161.37477	-561.34454	262.12503	163.89069	-528.12360	304.36343	146.55630	-369.15497	85.98254	1561.35364	-733.36682	277.13974	823.46008	-655.69397	218.86490	804.55939	-791.57031	168.94168	188.02522				-760.75085	-4.89520	209.28128	-790.48706	59.73507	179.66310	-679.99615	-58.54761	472.86899	-875.97748	-78.88188	141.21204	-942.24146	91.72177	961.53680	
354	7.060	-472.10272	262.74005	1303.16394	-656.85095	-37.35754	795.11346	-674.88226	174.84146	155.17706	-705.54724	75.42513	212.25417	-573.56659	-19.02683	486.93719	-702.95917	151.13335	210.45248	-693.22491	288.47202	697.31329	-693.63275	-79.47906	664.95355	-616.48846	-61.41358	539.73901	-477.18854	-86.35500	1289.49097	-630.26666	266.01111	597.33386				-607.40753	266.54828	549.29742	-664.03912	267.28940	486.51349	-665.18488	-68.89827	161.54539	-673.73224	53.44836	157.69643	-621.18634	-65.05939	588.09631	-517.62805	-71.89693	142.61580	-764.67084	222.53970	206.73679	-624.21216	-80.10126	157.77135	-882.58478	296.15625	144.63521	-555.66724	227.05139	501.22464	-603.03729	17.74887	167.65950	-559.22284	-40.17643	161.63380				-594.87195	222.40344	173.37141	-666.78918	298.60675	160.54988	-629.59637	306.27176	161.32634	-561.45264	262.05582	163.85809	-527.93939	304.22498	146.29359	-378.11499	83.90267	1578.56458	-730.94849	277.24005	829.01385	-653.69299	218.80809	807.72638	-791.97223	169.40216	188.06941				-761.22888	-4.99245	208.98199	-790.48297	59.64627	179.55035	-682.94025	-57.83939	473.81458	-875.97589	-78.81084	141.28232	-939.18170	91.68908	967.23499	
355	7.080	-477.02689	261.83081	1318.73584	-655.37146	-36.97108	798.22528	-674.88226	174.84146	155.17706	-705.54785	75.35915	212.28360	-575.62402	-18.13019	488.07458	-703.17200	151.47125	210.06406	-692.72876	287.99805	701.19714	-694.32422	-79.30158	668.27246	-619.04388	-60.68321	541.21631	-482.23886	-87.99232	1304.69336	-632.16693	265.54898	599.80023	-581.55597	43.66882	564.02753	-609.76520	265.42828	550.60382	-666.33466	266.29126	487.13071	-665.49268	-69.13177	161.19899	-673.73224	53.44836	157.69643	-623.25055	-64.58473	589.84113	-517.67651	-72.00954	143.04808	-764.90100	222.58327	206.84164	-624.14056	-80.40701	157.82823	-882.45593	296.22400	144.77756	-558.30084	226.48849	502.23175	-603.34149	17.43522	168.03537	-558.85529	-40.13813	161.34656				-595.00903	222.47784	173.36383	-666.84692	298.59357	160.46651	-629.68976	306.21979	161.22020	-561.71906	262.27936	164.15967	-528.21149	304.33224	146.49052	-387.51978	82.01910	1595.50513	-729.26666	276.82321	834.46637	-651.12939	217.99561	811.11981	-791.98468	169.31512	188.01190				-761.39288	-4.93817	208.94385	-790.40729	59.67465	179.41249	-684.73975	-57.36808	474.48825	-875.97748	-78.88188	141.21204	-936.59125	92.22338	973.46075	
356	7.100	-482.29587	260.91495	1333.60461	-653.94604	-37.17801	800.38544	-675.05396	174.90057	155.26671	-705.87897	75.23258	212.42584	-578.23230	-18.60776	489.64774	-703.22980	151.51169	210.16678	-692.62555	287.53500	705.07928	-694.48889	-79.60534	671.41626	-621.58856	-59.99545	542.46527	-487.75381	-88.60583	1318.42859	-634.22437	264.62961	601.91394	-583.75171	44.12575	565.44562	-612.28619	264.44556	552.29553	-668.77386	265.74634	488.22198	-665.67590	-69.36335	161.06056	-673.73224	53.44836	157.69643	-625.46210	-64.08649	591.68347	-517.61163	-72.15294	142.69609	-765.08521	222.79172	206.78296	-624.19110	-80.59156	157.65111	-882.51282	295.94952	144.53793	-560.53668	225.69217	503.94543	-603.37946	17.17928	168.24841	-558.80518	-39.85268	161.69592				-595.14056	222.77159	173.59183	-666.83649	298.78128	160.22266	-629.72845	306.32880	161.34048	-561.71429	262.31482	163.96075	-528.12360	304.36343	146.55630	-397.28281	80.28793	1612.23438	-727.21149	276.98831	839.29590	-649.12213	217.87677	814.00848	-791.98743	169.56615	188.01521				-761.69812	-4.90189	208.84113	-790.38727	59.44265	179.50583	-687.14447	-57.41211	475.69287	-876.05151	-78.64049	141.43311	
357	7.120	-487.85345	260.17694	1348.08044	-651.92206	-37.48728	802.99707	-674.90552	174.74429	155.75780	-705.94922	75.12433	212.39674	-580.55487	-17.92312	490.67453	-703.66217	151.82376	210.13689	-692.18420	287.27853	708.63177	-694.90723	-79.09725	674.67896	-624.54919	-58.94960	543.38562	-492.68564	-90.94978	1333.82813	-636.02869	264.02243	603.82953	-586.93018	43.92899	565.44550	-614.82477	264.17319	554.04791	-671.49420	265.29971	489.48978	-665.68396	-69.52168	161.11711	-673.88745	53.46931	157.71461	-627.50323	-62.94870	593.07983	-517.78979	-72.26826	142.88431	-765.60681	222.97447	206.78738	-624.19110	-80.59156	157.65111	-882.64655	296.32001	144.77406	-563.16943	225.33627	505.04248	-603.55469	16.90084	168.50433	-558.90283	-40.12424	161.48868				-595.41687	223.03104	173.28041	-667.12189	298.89890	159.98669	-629.73090	306.54022	161.21255	-561.90668	262.44049	164.22879	-528.18286	304.40295	146.38264	-407.46188	78.69431	1628.34827	-725.25946	276.64740	844.66339	-646.58972	217.61496	816.54468	-792.26617	169.94395	187.79846				-762.12897	-4.96736	208.88684	-790.68823	59.56264	179.28635	-689.77002	-56.82377	476.31870	-876.03320	-78.59757	141.50241	
358	7.140	-493.33542	259.19519	1362.09399	-650.46930	-37.23091	804.91681	-674.76917	174.80652	156.07259	-706.24194	75.09766	212.71857	-583.21350	-17.15368	492.31204	-703.94873	152.04868	210.18867	-691.92493	286.78180	712.07739	-695.32373	-78.49397	678.10040	-626.93823	-58.85333	545.15399	-498.33716	-91.68305	1347.90210	-638.29144	263.57224	606.54578	-589.80835	44.94201	566.78540	-617.88153	263.22351	555.42621	-673.89789	264.60168	490.34283	-665.84955	-69.73355	161.14696	-673.76501	53.36712	157.83070	-629.68933	-62.35370	595.02472	-517.61163	-72.15294	142.69609	-765.67914	222.90540	206.68898	-624.43274	-80.96156	157.28450	-882.62592	296.11502	144.55537	-566.34961	224.39142	506.44266	-603.71106	16.70156	168.75453	-559.02991	-40.15442	161.65927				-595.72815	223.34268	173.59166	-667.08069	299.15665	159.97070	-629.66827	306.65503	161.27460	-562.03461	262.33896	163.99341	-528.09418	304.35834	146.31961	-417.64328	77.38641	1644.05591	-723.69238	277.01355	850.07227	-644.25574	217.16823	819.40216	-792.45044	170.17175	187.82118				-762.41571	-5.22222	208.96405	-790.76306	59.11673	179.28130	-692.05090	-56.01756	477.35965	-876.03320	-78.59757	141.50241	
359	7.160	-499.26071	258.14410	1375.93201	-647.92480	-35.57504	807.40698	-674.81995	175.26614	156.33276	-706.46252	74.68357	212.84448	-585.55170	-17.44204	492.84760	-703.94055	152.16739	210.25052	-691.14728	287.01004	716.09546	-695.15717	-77.20378	680.98499	-629.65924	-57.55601	546.40479	-503.67914	-92.77305	1362.43091	-640.51794	263.07501	608.66125	-592.22540	45.71535	567.62610	-620.30096	261.81741	556.92438	-676.50385	263.58841	491.36914	-666.21088	-70.17833	160.55951	-674.02496	52.84028	158.00288	-631.63153	-61.18520	596.55042	-517.61798	-72.13449	142.67934	-765.88208	223.35315	206.61748	-624.45636	-80.92022	157.13153	-882.63727	296.20413	144.67590	-569.03741	223.23857	508.15100	-603.81866	16.73562	168.80112	-559.14722	-40.10760	161.47243				-596.08893	223.52028	173.81409	-667.10876	299.31412	159.83894	-629.65961	306.75586	161.12141	-562.05670	262.40930	164.09885	-528.11969	304.63617	146.75458	-428.41815	76.08981	1659.07385	-721.68781	277.44946	854.98431	-642.11584	216.61414	821.91199	-792.65680	170.25215	187.54512				-762.46167	-5.23144	208.91003	-791.02338	58.59246	179.14137	-694.65179	-55.51968	477.94601	-876.15527	-78.60425	141.36369	
